<svg xmlns="http://www.w3.org/2000/svg" width="24" height="24" viewBox="0 0 24 24" fill="none" stroke="currentColor" stroke-width="2" stroke-linecap="round" stroke-linejoin="round" class="lucide lucide-car"><path d="M19 17h2c.6 0 1-.4 1-1v-3c0-.9-.7-1.7-1.5-1.9C18.7 10.6 16 10 16 10s-1.3-1.4-2.2-2.3c-.5-.4-1.1-.7-1.8-.7H5c-.6 0-1.1.4-1.4.9L1 16v1c0 .6.4 1 1 1h2"/><path d="M14 17h-4"/><path d="M10.05 17.11.6 11.2C.2 10.7 0 10.1 0 9.5s.2-1.2.6-1.7l1.9-1.9c.5-.4 1.1-.6 1.7-.6h13.4c.6 0 1.2.2 1.7.6l1.9 1.9c.4.5.6 1.1.6 1.7s-.2 1.2-.6 1.7l-.6 1.1"/><path d="M5 17h.01"/><path d="M5 17h.01"/><circle cx="5" cy="17" r="2"/><circle cx="19" cy="17" r="2"/></svg>